<?xml version="1.0" encoding="UTF-8" standalone="no"?>
<!-- Created with Inkscape (http://www.inkscape.org/) -->

<svg
   width="96.28688mm"
   height="88.292778mm"
   viewBox="0 0 96.28688 88.292778"
   version="1.1"
   id="svg1"
   xmlns="http://www.w3.org/2000/svg"
   xmlns:svg="http://www.w3.org/2000/svg">
  <defs
     id="defs1" />
  <g
     id="layer1"
     transform="translate(-49.480984,-88.983711)">
    <path
       style="fill:none;fill-rule:evenodd;stroke:#205038;stroke-width:5.27433;stroke-linecap:round;stroke-dasharray:none;stroke-opacity:1"
       id="path1"
       d="m 107.83271,135.06691 c 0.75192,0.75192 -0.6426,1.38455 -1.24974,1.24974 -1.64532,-0.36531 -1.90981,-2.47275 -1.24975,-3.74923 1.1807,-2.28333 4.24671,-2.55082 6.24872,-1.24974 2.93804,1.90938 3.21084,6.04473 1.24975,8.74821 -2.61383,3.60331 -7.8513,3.87894 -11.2477,1.24974 -4.274027,-3.30858 -4.551239,-9.66194 -1.24974,-13.74719 3.99855,-4.94779 11.47486,-5.22595 16.24667,-1.24974 5.62341,4.68584 5.9022,13.28923 1.24974,18.74617 -5.37145,6.30025 -15.10454,6.57945 -21.245651,1.24973 -6.977921,-6.05596 -7.257426,-16.92052 -1.249737,-23.74514 6.739718,-7.65618 18.736998,-7.93591 26.244628,-1.24973 8.33489,7.42292 8.61478,20.55384 1.24974,28.74411"
       transform="matrix(2.2751707,0,0,2.2751707,-151.71135,-170.1738)" />
  </g>
</svg>
